<svg xmlns="http://www.w3.org/2000/svg" version="1.1" xmlns:xlink="http://www.w3.org/1999/xlink" width="512" height="512" x="0" y="0" viewBox="0 0 512.172 512.172" style="enable-background:new 0 0 512 512" xml:space="preserve" class=""><g><path d="m281.245 101.088 52.419-33.259c10.656-6.761 24.787-3.271 31.091 7.661 9.348 16.213 12.85 43.517 10.506 68.039M228.24 99.383l-49.731-31.554c-10.656-6.761-24.787-3.271-31.091 7.661-9.21 15.974-12.746 42.713-10.606 66.952" style="stroke-width:30;stroke-linecap:round;stroke-linejoin:round;stroke-miterlimit:10;" fill="none" stroke="#ffffff" stroke-width="30" stroke-linecap="round" stroke-linejoin="round" stroke-miterlimit="10" data-original="#000000" opacity="1" class=""></path><path d="M223.256 132.618v-8.128c0-18.131 14.698-32.83 32.83-32.83h0c18.131 0 32.83 14.698 32.83 32.83v8.128" style="stroke-width:30;stroke-linecap:round;stroke-linejoin:round;stroke-miterlimit:10;" fill="none" stroke="#ffffff" stroke-width="30" stroke-linecap="round" stroke-linejoin="round" stroke-miterlimit="10" data-original="#000000" opacity="1" class=""></path><path d="M106.653 386.712v41.229c0 10.92-8.934 19.854-19.854 19.854H34.882c-10.92 0-19.853-8.934-19.853-19.854v-48.865M497.148 381.259v46.683c0 10.92-8.934 19.854-19.854 19.854h-51.917c-10.919 0-19.853-8.934-19.853-19.854V383.44M58.501 256.911 99.26 177c11.46-22.469 33.078-35.71 58.3-35.71h196.931c25.216 0 46.828 13.234 58.291 35.692l40.799 79.929" style="fill-rule:evenodd;clip-rule:evenodd;stroke-width:29.9999;stroke-linecap:round;stroke-linejoin:round;stroke-miterlimit:22.9256;" fill-rule="evenodd" clip-rule="evenodd" fill="none" stroke="#ffffff" stroke-width="29.9999" stroke-linecap="round" stroke-linejoin="round" stroke-miterlimit="22.9256" data-original="#000000" opacity="1" class=""></path><path d="M286.086 253.639h133.641c42.655 0 77.444 34.79 77.444 77.444v51.266H15v-51.266c0-42.655 34.79-77.444 77.445-77.444h130.812M80.478 317.994h37.388M286.086 317.994h36.54M189.457 317.994h36.629M398.282 317.994h33.572M70.385 253.638H16.938M495.24 253.638h-53.448" style="fill-rule:evenodd;clip-rule:evenodd;stroke-width:29.9999;stroke-linecap:round;stroke-linejoin:round;stroke-miterlimit:22.9256;" fill-rule="evenodd" clip-rule="evenodd" fill="none" stroke="#ffffff" stroke-width="29.9999" stroke-linecap="round" stroke-linejoin="round" stroke-miterlimit="22.9256" data-original="#000000" opacity="1" class=""></path><path d="M226.086 141.29h60v241.06h-60z" style="fill-rule:evenodd;clip-rule:evenodd;stroke-width:29.9999;stroke-linecap:round;stroke-linejoin:round;stroke-miterlimit:22.9256;" fill-rule="evenodd" clip-rule="evenodd" fill="none" stroke="#ffffff" stroke-width="29.9999" stroke-linecap="round" stroke-linejoin="round" stroke-miterlimit="22.9256" data-original="#000000" opacity="1" class=""></path></g></svg>